<svg xmlns="http://www.w3.org/2000/svg" width="1200" height="630" viewBox="0 0 1200 630">
  <defs>
    <linearGradient id="bg" x1="0%" y1="0%" x2="100%" y2="100%">
      <stop offset="0%" style="stop-color:#0A0A0F"/>
      <stop offset="100%" style="stop-color:#14141F"/>
    </linearGradient>
    <linearGradient id="accent" x1="0%" y1="0%" x2="100%" y2="0%">
      <stop offset="0%" style="stop-color:#6B8AFF"/>
      <stop offset="100%" style="stop-color:#8AA2FF"/>
    </linearGradient>
    <radialGradient id="glow" cx="50%" cy="50%" r="50%">
      <stop offset="0%" style="stop-color:#6B8AFF;stop-opacity:0.3"/>
      <stop offset="100%" style="stop-color:#6B8AFF;stop-opacity:0"/>
    </radialGradient>
  </defs>
  
  <rect width="1200" height="630" fill="url(#bg)"/>
  <ellipse cx="600" cy="315" rx="500" ry="300" fill="url(#glow)"/>
  
  <g opacity="0.03" stroke="#FFFFFF" stroke-width="1">
    <line x1="0" y1="100" x2="1200" y2="100"/>
    <line x1="0" y1="200" x2="1200" y2="200"/>
    <line x1="0" y1="300" x2="1200" y2="300"/>
    <line x1="0" y1="400" x2="1200" y2="400"/>
    <line x1="0" y1="500" x2="1200" y2="500"/>
    <line x1="200" y1="0" x2="200" y2="630"/>
    <line x1="400" y1="0" x2="400" y2="630"/>
    <line x1="600" y1="0" x2="600" y2="630"/>
    <line x1="800" y1="0" x2="800" y2="630"/>
    <line x1="1000" y1="0" x2="1000" y2="630"/>
  </g>
  
  <g transform="translate(80, 60)">
    <rect width="48" height="48" rx="12" fill="url(#accent)"/>
    <text x="24" y="32" text-anchor="middle" font-size="24">📖</text>
  </g>
  <text x="144" y="93" font-family="Inter, -apple-system, sans-serif" font-size="28" font-weight="700" fill="#FFFFFF">FlowReader</text>
  
  <text x="600" y="220" text-anchor="middle" font-family="Inter, -apple-system, sans-serif" font-size="56" font-weight="700" fill="#FFFFFF" letter-spacing="-2">Read 2-3x Faster</text>
  <text x="600" y="280" text-anchor="middle" font-family="Inter, -apple-system, sans-serif" font-size="28" fill="#6B7280">RSVP Speed Reading App for iOS</text>
  
  <g transform="translate(460, 340)">
    <rect width="180" height="240" rx="28" fill="#14141F" stroke="#1F1F2E" stroke-width="2"/>
    <rect x="65" y="8" width="50" height="5" rx="2.5" fill="#1F1F2E"/>
    <rect x="50" y="60" width="80" height="80" rx="16" fill="url(#accent)" opacity="0.2"/>
    <text x="90" y="105" text-anchor="middle" font-size="40">⚡</text>
    <text x="90" y="170" text-anchor="middle" font-family="Inter, sans-serif" font-size="13" font-weight="600" fill="#FFFFFF">Add your first</text>
    <text x="90" y="188" text-anchor="middle" font-family="Inter, sans-serif" font-size="13" font-weight="600" fill="#FFFFFF">reading list</text>
    <rect x="30" y="210" width="120" height="20" rx="10" fill="url(#accent)"/>
    <text x="90" y="224" text-anchor="middle" font-family="Inter, sans-serif" font-size="10" font-weight="600" fill="#0A0A0F">+ Import your first text</text>
  </g>
  
  <g transform="translate(680, 360)">
    <rect width="160" height="36" rx="18" fill="#14141F" stroke="#1F1F2E"/>
    <text x="80" y="23" text-anchor="middle" font-family="Inter, sans-serif" font-size="12" fill="#FFFFFF">100-1200 WPM</text>
  </g>
  <g transform="translate(680, 410)">
    <rect width="160" height="36" rx="18" fill="#14141F" stroke="#1F1F2E"/>
    <text x="80" y="23" text-anchor="middle" font-family="Inter, sans-serif" font-size="12" fill="#FFFFFF">PDF & ePub Import</text>
  </g>
  <g transform="translate(680, 460)">
    <rect width="160" height="36" rx="18" fill="#14141F" stroke="#1F1F2E"/>
    <text x="80" y="23" text-anchor="middle" font-family="Inter, sans-serif" font-size="12" fill="#FFFFFF">100% Private & GDPR</text>
  </g>
  
  <text x="600" y="580" text-anchor="middle" font-family="Inter, sans-serif" font-size="14" fill="#6B7280">iOS App • Speed Reading • Coming Soon</text>
</svg>
